<svg width="120" height="120" viewBox="0 0 120 120" fill="none" xmlns="http://www.w3.org/2000/svg">
<path d="M0 60C0 26.8629 26.8629 0 60 0C93.1371 0 120 26.8629 120 60C120 93.1371 93.1371 120 60 120C26.8629 120 0 93.1371 0 60Z" fill="black"/>
<path d="M24.3696 72.366C24.0094 71.2003 23.3535 70.7645 22.402 71.0586C21.5646 71.3173 20.9727 71.9657 20.6263 73.0038C20.3254 74.0544 20.3101 75.0169 20.5802 75.8911C20.8578 76.7896 21.4477 77.5517 22.3499 78.1774C23.2901 78.7913 24.2361 78.9513 25.1876 78.6573C25.2257 78.6455 25.2447 78.6397 25.2447 78.6397C26.3486 78.2986 27.1158 77.5428 27.5463 76.3723C27.9769 75.2018 28.0689 74.0826 27.8224 73.0149C27.6215 71.9597 27.4047 71.0557 27.1721 70.3029C26.9395 69.5501 26.6386 68.7786 26.2693 67.9882C25.9381 67.1861 25.4929 66.3526 24.9338 65.4879C24.3673 64.5989 23.9025 63.9045 23.5397 63.4048C23.0862 62.7468 21.9785 61.2535 20.2166 58.9249C18.9219 59.4579 18.1214 59.9713 17.8153 60.4649C17.7386 60.6216 17.6014 60.7172 17.4036 60.7517C16.8862 60.8318 16.6967 60.6908 16.8351 60.3288C17.2029 59.6299 18.1221 58.8937 19.5926 58.1201C18.4584 56.6084 17.6212 54.9784 17.0809 53.2299C15.9179 49.466 16.5575 46.4751 18.9995 44.2575C19.7936 43.4535 20.8186 42.8575 22.0747 42.4694C26.5661 41.0816 29.2586 41.766 30.152 44.5226C30.4221 45.3968 30.354 46.2558 29.9475 47.0997C29.7786 47.4977 29.2747 48.0258 28.4356 48.6841C27.5891 49.3181 26.7662 49.7586 25.9668 50.0055C25.1675 50.2525 24.3996 50.2637 23.663 50.039C22.9264 49.8144 22.4644 49.3985 22.2768 48.7914C21.8936 47.6861 22.4823 46.8924 24.0429 46.4102C24.3854 46.3043 24.6135 46.3004 24.7272 46.3983C24.8333 46.4719 24.8481 46.587 24.7714 46.7437C24.7253 46.8644 24.5309 46.9776 24.1884 47.0835C23.4121 47.2701 23.1215 47.6791 23.3166 48.3105C23.5572 48.9544 24.3627 49.0647 25.733 48.6413C26.0375 48.5472 26.2857 48.271 26.4777 47.8127C26.7077 47.3425 26.8803 46.9567 26.9956 46.655C27.1415 46.3174 27.1206 45.845 26.933 45.2379C26.3853 43.4652 24.8934 42.9551 22.4574 43.7078C21.3155 44.0606 20.588 44.4051 20.2749 44.7413C18.9469 45.9763 18.3142 47.3024 18.3768 48.7195C18.4255 49.8218 18.6749 51.1014 19.1251 52.5584C19.5753 54.0155 20.4471 55.555 21.7405 57.1771C22.2204 56.9757 22.936 56.7279 23.8876 56.4339L25.9318 55.7624C26.5027 55.586 26.9064 55.4081 27.1428 55.2286C27.4098 55.0131 27.3688 54.813 27.0199 54.6282C26.6709 54.4434 26.5731 54.1943 26.7264 53.8809C26.8723 53.5432 27.1508 53.2975 27.562 53.1439C27.9732 52.9902 28.3913 52.994 28.8164 53.1553C29.4232 53.4998 29.7792 53.8421 29.8842 54.1821C29.9893 54.522 29.908 54.8664 29.6405 55.2151C29.1279 55.9853 28.0342 56.6291 26.3595 57.1466L24.2478 57.5995L22.5349 58.1288C22.8603 58.5071 23.4355 59.154 24.2604 60.0696C27.5603 63.732 29.6041 66.8381 30.3919 69.3879C30.7971 70.6992 31.0554 71.6702 31.1669 72.3008C31.4273 73.6834 31.0634 75.2723 30.0753 77.0673C29.0871 78.8623 27.6642 80.0601 25.8066 80.6607C24.7409 80.99 23.6422 81.0103 22.5105 80.7215C21.4244 80.4452 20.537 79.9346 19.8482 79.1898C19.1288 78.481 18.6416 77.7138 18.3865 76.8881C17.8912 75.2854 18.3275 73.6609 19.6952 72.0146C20.4822 71.0532 21.3135 70.4372 22.1889 70.1667C23.2928 69.8256 24.2272 70.0158 24.9921 70.7371C25.2875 71.0183 25.4727 71.2803 25.5477 71.5231C25.6227 71.7659 25.6752 71.9359 25.7052 72.0331C25.8928 72.6402 25.8475 73.5054 25.5691 74.6289C25.2983 75.7767 24.7823 76.4682 24.021 76.7034C23.3359 76.9151 22.7129 76.7883 22.1522 76.3231C21.9855 76.1884 21.9558 76.0247 22.063 75.8319C22.2083 75.6274 22.4142 75.484 22.6806 75.4017C23.0232 75.2958 23.3003 75.3831 23.5121 75.6635L23.7284 75.7563C24.2538 75.5674 24.5256 75.0977 24.5439 74.3471C24.6077 73.6092 24.5496 72.9488 24.3696 72.366Z" fill="white"/>
<path d="M44.6714 52.4064C45.623 52.1123 46.5496 52.3448 47.4512 53.1037C48.3909 53.8508 49.0108 54.7101 49.311 55.6814C49.6111 56.6528 49.4577 57.9106 48.8507 59.4548C48.2362 60.9748 47.2961 62.183 46.0303 63.0796C44.9098 63.7716 44.1402 64.1823 43.7215 64.3117C42.1459 64.7453 40.4388 64.8205 38.6 64.5374C37.4147 64.345 36.3332 63.8811 35.3555 63.1457C34.3702 62.386 33.7725 61.6662 33.5624 60.9863C33.3523 60.3064 33.2348 59.3185 33.2097 58.0228C33.2151 56.691 33.8524 55.1773 35.1215 53.4816C36.3519 51.931 37.8236 50.891 39.5364 50.3618C40.5641 50.0442 41.4768 49.9618 42.2745 50.1143C43.1027 50.2308 43.5994 50.5562 43.7645 51.0905C43.9295 51.6247 43.893 52.1813 43.655 52.7603C43.4549 53.3276 43.0695 53.6994 42.4985 53.8758C42.4605 53.8876 42.4224 53.8993 42.3843 53.9111C41.4328 54.2051 40.3995 54.0322 39.2845 53.3925C39.1403 53.3306 39.0912 53.2394 39.1373 53.1187C39.2215 52.9863 39.3397 52.8966 39.492 52.8495C39.6748 52.7664 39.8383 52.7558 39.9825 52.8177C40.1798 52.9163 40.5253 53.0224 41.019 53.1358C41.5508 53.2376 41.9499 53.2472 42.2163 53.1649C42.6731 53.0238 42.8463 52.5047 42.7359 51.6078C42.5709 51.0735 41.6319 51.071 39.9191 51.6003C39.5765 51.7061 39.2985 51.8186 39.0852 51.9377C38.9098 52.0451 38.7688 52.1286 38.6622 52.1881C38.5555 52.2477 38.4373 52.3374 38.3075 52.4573C38.2158 52.5655 38.1394 52.6556 38.0783 52.7277C38.0097 52.7755 37.9143 52.8714 37.792 53.0156C37.7003 53.1238 37.643 53.208 37.6199 53.2683C37.4746 53.4728 37.2376 53.7855 36.909 54.2062C36.6184 54.6152 36.4189 55.0493 36.3106 55.5084C36.2403 55.9558 36.2684 56.519 36.3949 57.1982C36.5519 57.8413 36.6334 58.3748 36.6392 58.7986C36.6831 59.2107 36.7276 59.4896 36.7726 59.6353L37.1328 60.8009C37.4104 61.6994 37.6591 62.2344 37.8789 62.4059C38.0987 62.5774 38.2844 62.7063 38.4361 62.7924C38.7545 63.0132 39.1113 63.1557 39.5064 63.2199C41.2845 63.4419 42.5923 63.4235 43.4297 63.1648C44.3052 62.8943 45.1627 62.3633 46.0023 61.5719C46.8724 60.7444 47.4648 59.9628 47.7796 59.2271C48.3099 57.8396 48.4137 56.6237 48.0911 55.5795C47.761 54.511 47.0301 53.8324 45.8984 53.5436C45.298 53.4897 45.016 53.6566 45.0524 54.0444C45.0749 54.1172 45.2226 54.2578 45.4955 54.4661C45.7608 54.6502 45.8018 54.8503 45.6184 55.0666C45.4731 55.2711 45.2292 55.4263 44.8866 55.5321C44.5746 55.6019 44.3428 55.5937 44.1911 55.5076C44.0699 55.3854 43.8804 55.2445 43.6226 55.0847C43.4028 54.9132 43.2592 54.7182 43.1916 54.4996C43.1241 54.2811 43.2587 53.9069 43.5954 53.3773C43.9702 52.8358 44.3288 52.5122 44.6714 52.4064Z" fill="white"/>
<path d="M61.414 47.2333C62.3656 46.9392 63.2922 47.1717 64.1938 47.9306C65.1335 48.6777 65.7534 49.537 66.0535 50.5083C66.3537 51.4797 66.2002 52.7375 65.5933 54.2817C64.9788 55.8017 64.0386 57.0099 62.7729 57.9065C61.6524 58.5985 60.8828 59.0092 60.4641 59.1386C58.8885 59.5722 57.1813 59.6474 55.3426 59.3643C54.1573 59.1719 53.0758 58.708 52.098 57.9726C51.1128 57.2129 50.5151 56.4931 50.305 55.8132C50.0949 55.1333 49.9773 54.1454 49.9522 52.8497C49.9577 51.5179 50.595 50.0042 51.864 48.3085C53.0945 46.7579 54.5661 45.7179 56.279 45.1887C57.3067 44.8711 58.2194 44.7887 59.0171 44.9412C59.8453 45.0577 60.342 45.3831 60.507 45.9174C60.6721 46.4516 60.6356 47.0082 60.3975 47.5872C60.1975 48.1545 59.812 48.5263 59.2411 48.7027C59.203 48.7145 59.165 48.7262 59.1269 48.738C58.1753 49.032 57.142 48.8591 56.027 48.2194C55.8828 48.1575 55.8338 48.0663 55.8799 47.9456C55.9641 47.8132 56.0823 47.7235 56.2345 47.6764C56.4174 47.5933 56.5809 47.5827 56.7251 47.6446C56.9223 47.7432 57.2678 47.8493 57.7616 47.9627C58.2934 48.0645 58.6925 48.0742 58.9589 47.9918C59.4157 47.8507 59.5889 47.3316 59.4785 46.4347C59.3134 45.9004 58.3745 45.8979 56.6616 46.4272C56.3191 46.533 56.0411 46.6455 55.8277 46.7646C55.6524 46.872 55.5114 46.9555 55.4047 47.015C55.2981 47.0746 55.1798 47.1643 55.0501 47.2842C54.9584 47.3924 54.882 47.4825 54.8209 47.5546C54.7523 47.6024 54.6568 47.6983 54.5346 47.8425C54.4429 47.9507 54.3856 48.0349 54.3625 48.0952C54.2172 48.2997 53.9802 48.6124 53.6516 49.0331C53.361 49.4421 53.1615 49.8762 53.0532 50.3353C52.9829 50.7827 53.011 51.3459 53.1375 52.0251C53.2945 52.6682 53.3759 53.2017 53.3818 53.6255C53.4257 54.0376 53.4702 54.3165 53.5152 54.4622L53.8754 55.6278C54.153 56.5263 54.4017 57.0613 54.6215 57.2328C54.8412 57.4043 55.027 57.5332 55.1787 57.6193C55.4971 57.8401 55.8539 57.9826 56.2489 58.0468C58.0271 58.2688 59.3349 58.2505 60.1723 57.9917C61.0478 57.7212 61.9053 57.1902 62.7448 56.3988C63.615 55.5713 64.2074 54.7897 64.5222 54.054C65.0525 52.6665 65.1563 51.4506 64.8337 50.4064C64.5035 49.3379 63.7726 48.6593 62.641 48.3705C62.0406 48.3166 61.7586 48.4835 61.795 48.8713C61.8175 48.9441 61.9652 49.0847 62.238 49.293C62.5034 49.4771 62.5444 49.6772 62.361 49.8935C62.2157 50.098 61.9718 50.2532 61.6292 50.359C61.3172 50.4288 61.0854 50.4206 60.9337 50.3345C60.8125 50.2123 60.623 50.0714 60.3652 49.9116C60.1454 49.7401 60.0017 49.5451 59.9342 49.3265C59.8667 49.108 60.0013 48.7338 60.338 48.2042C60.7127 47.6627 61.0714 47.3391 61.414 47.2333Z" fill="white"/>
<path d="M85.6542 51.9539L86.3844 51.8879C86.4605 51.8644 86.6243 51.7872 86.8757 51.6563C87.2188 51.4172 87.4129 51.3706 87.4579 51.5163C87.5555 51.832 87.4021 52.1454 86.9979 52.4565C86.6012 52.7919 86.3076 52.989 86.1173 53.0478C85.1657 53.3418 84.2118 53.2907 83.2554 52.8946C82.2991 52.4984 81.5674 52.0195 81.0603 51.458C80.5532 50.8964 79.9368 50.1159 79.211 49.1164C79.0168 50.1075 78.9082 50.6332 78.8852 50.6935C78.8621 50.7538 78.7359 50.9525 78.5064 51.2894C78.0855 51.9515 77.6542 52.3774 77.2124 52.5671C76.8087 52.745 76.4166 52.8928 76.0359 53.0104C74.3612 53.5279 72.5554 53.5538 70.6185 53.0881C68.226 52.4973 66.7784 51.3883 66.2757 49.7613C66.0956 49.1785 65.9619 48.4084 65.8746 47.4511C65.7873 46.4938 66.1908 45.4381 67.0851 44.2839C68.1017 42.9855 69.295 42.1247 70.6653 41.7013C71.3505 41.4896 72.1868 41.4972 73.1742 41.7242C74.3364 41.9769 75.0338 42.4797 75.2664 43.2325C75.499 43.9853 75.3322 44.795 74.7661 45.6616C74.5516 46.047 74.1892 46.3585 73.6788 46.596C73.199 46.7975 72.6436 46.8893 72.0126 46.8714C71.3741 46.8293 70.9831 46.7107 70.8394 46.5157C70.6883 46.2964 70.6092 46.108 70.6022 45.9505C70.6333 45.7813 70.6988 45.5882 70.7985 45.3711C70.8907 45.1298 70.9371 44.9426 70.9377 44.8094C70.9838 44.6887 71.083 44.6049 71.2352 44.5578C71.418 44.4748 71.5625 44.47 71.6686 44.5436C71.8053 44.5812 71.8734 44.6666 71.8729 44.7998C71.757 45.2346 71.7822 45.5859 71.9484 45.8538C72.0089 45.9149 72.1874 45.9529 72.4839 45.9677C73.191 45.962 73.6371 45.6513 73.8221 45.0355C74.0376 44.3836 74.1116 43.9484 74.0441 43.7299C73.9766 43.5113 73.8938 43.3108 73.7957 43.1283C73.6976 42.9457 73.3218 42.8091 72.6683 42.7184C72.0148 42.6277 71.5739 42.6176 71.3455 42.6882C69.7088 43.1939 68.7427 44.2506 68.4472 45.8582C68.245 46.9582 68.2264 47.7753 68.3915 48.3095C68.5566 48.8438 68.7184 49.2327 68.8771 49.4763C69.4056 50.3771 70.3533 51.0153 71.7203 51.391C73.0798 51.7424 74.3495 51.7358 75.5295 51.3712C75.7579 51.3007 75.9635 51.2238 76.1463 51.1408C76.3291 51.0577 76.5352 50.8477 76.7647 50.5107C77.0322 50.1621 77.296 49.8012 77.5561 49.4283C77.8086 49.031 77.9807 48.7783 78.0724 48.6702C78.1565 48.5378 78.2338 48.2479 78.304 47.8005C77.3526 46.2058 76.7006 44.8377 76.3479 43.6964C75.9878 42.5308 75.7592 41.7235 75.6622 41.2746C75.5652 40.8258 75.48 40.2801 75.4066 39.6378C75.3713 38.9836 75.3352 38.5293 75.2982 38.2747C75.0416 35.9598 75.4538 33.7176 76.5347 31.548C76.8414 30.9212 77.2612 30.5255 77.7941 30.3608C77.8322 30.3491 77.8702 30.3373 77.9083 30.3256C79.1638 30.0706 80.073 30.8538 80.6357 32.6751C81.356 35.0063 81.1954 37.9955 80.1541 41.6425C79.9766 42.2826 79.7036 43.0187 79.3353 43.8507C79.711 44.9317 80.114 45.8314 80.5445 46.5497C80.9749 47.2679 81.3297 47.8766 81.609 48.3755C81.8807 48.8502 82.1375 49.2763 82.3792 49.6538C82.6135 50.0071 82.9235 50.4034 83.3095 50.8428C84.0583 51.7819 84.8399 52.1523 85.6542 51.9539ZM78.82 41.5758C79.7472 37.9641 79.8244 34.9076 79.0516 32.4064C78.8265 31.6779 78.4821 31.3055 78.0184 31.2891C77.9803 31.3009 77.965 31.3189 77.9725 31.3432C78.01 31.4646 78.0057 31.5856 77.9596 31.7063C77.9135 31.827 77.8596 31.9899 77.798 32.1952C77.7363 32.4005 77.6631 32.6359 77.5784 32.9015C77.5242 33.131 77.4885 33.4879 77.4713 33.972C77.4541 34.4562 77.4487 34.8436 77.4551 35.1342C77.4996 35.4131 77.5738 35.8557 77.6778 36.4621C77.7742 37.0441 77.8514 37.6986 77.9092 38.4256C78.0051 39.1408 78.2626 40.3116 78.6817 41.9378L78.82 41.5758Z" fill="white"/>
<path d="M42.4907 86.7584L42.3452 86.0851C42.3077 85.9637 42.3575 85.8551 42.4948 85.7595C42.632 85.6639 42.7652 85.6228 42.8944 85.636C43.0617 85.6376 43.1641 85.699 43.2016 85.8205C43.3667 86.3547 43.6358 86.5509 44.0089 86.409C44.4507 86.2193 44.7297 85.8404 44.8461 85.2724C44.8772 85.1032 44.874 84.9579 44.8365 84.8365L44.5076 84.3794C44.4176 84.088 44.2134 83.8319 43.8949 83.6111C43.5765 83.3902 43.227 83.3386 42.8464 83.4562C42.6561 83.515 42.4687 83.7857 42.2842 84.2684C41.6414 85.2917 41.4888 86.3497 41.8264 87.4425C42.164 88.5352 42.9287 89.3231 44.1204 89.8062C44.166 89.8187 44.2228 89.8677 44.2909 89.953C44.4345 90.1481 44.6015 90.2162 44.7918 90.1574C45.4008 89.9692 46.0573 89.3274 46.7613 88.2321C47.8567 86.2443 48.1343 84.3762 47.594 82.6277C47.3614 81.8749 47.0404 81.3756 46.6308 81.1297C46.2593 80.8721 45.5297 80.8049 44.442 80.9282C44.1605 80.9619 43.548 81.0713 42.6045 81.2565C41.6535 81.4173 40.9726 81.508 40.562 81.5284C40.1894 81.5371 39.7603 81.4303 39.2746 81.208C38.7889 80.9856 38.4298 80.498 38.1972 79.7452C37.9646 78.9924 38.2427 77.9355 39.0314 76.5746C40.0651 74.792 41.3813 73.6538 42.9799 73.1599C43.7412 72.9246 44.5775 72.9323 45.4888 73.1827C46.4382 73.4214 47.0254 73.905 47.2505 74.6335C47.4681 75.3378 47.3852 76.0816 47.0019 76.8652C46.6491 77.6126 46.054 78.1157 45.2166 78.3744C44.8359 78.4921 44.4103 78.464 43.9396 78.2902C43.4995 78.0803 43.2342 77.8963 43.1436 77.7381C43.0836 77.5438 43.0613 77.4043 43.0769 77.3197C43.123 77.1991 43.2072 77.0667 43.3294 76.9225C43.4897 76.7665 43.5967 76.6404 43.6503 76.544C43.742 76.4359 43.8677 76.3704 44.0274 76.3477C44.2253 76.3132 44.3582 76.3386 44.4263 76.424C44.5249 76.4733 44.5321 76.5642 44.448 76.6966L44.5509 76.6249C44.3064 76.9132 44.2067 77.1303 44.2517 77.276C44.2892 77.3974 44.3876 77.5133 44.5468 77.6237C44.706 77.7341 44.8617 77.7658 45.014 77.7188C45.623 77.5306 46.0503 77.1592 46.2959 76.6045C46.572 76.0137 46.635 75.4755 46.485 74.9898C46.3349 74.5041 45.9256 74.1917 45.2572 74.0524C44.5887 73.9131 44.0831 73.8964 43.7406 74.0022C42.3703 74.4256 41.3366 75.2637 40.6396 76.5166C39.9426 77.7694 39.7104 78.7722 39.943 79.525C40.1231 80.1078 40.5857 80.3905 41.3309 80.3731C41.9088 80.3542 42.5515 80.2753 43.2592 80.1364C43.9668 79.9976 44.4386 79.905 44.6745 79.8587C46.0892 79.7142 47.1456 79.8268 47.8435 80.1964C48.5415 80.566 49.0293 81.2 49.3069 82.0985C49.9596 84.2112 49.7343 86.3159 48.6309 88.4126C48.1328 89.3645 47.8226 89.9126 47.7003 90.0568C46.9363 90.9579 46.2308 91.5084 45.5837 91.7083C44.9747 91.8965 44.3435 91.9452 43.69 91.8545C43.0821 91.7763 42.6074 91.657 42.2659 91.4965C40.6191 90.755 39.5706 89.6558 39.1204 88.1987C38.6702 86.7417 38.9004 85.3272 39.8107 83.9552C40.2166 83.2446 41.1047 82.6776 42.475 82.2542C42.513 82.2424 42.5511 82.2307 42.5892 82.2189C43.3124 81.9954 43.9886 82.0924 44.618 82.5098C45.2473 82.9272 45.6482 83.4152 45.8208 83.9737L45.75 84.5542C45.9001 85.0399 45.681 85.613 45.0929 86.2736C44.5047 86.9341 44.0394 87.3173 43.6968 87.4232C43.202 87.5761 42.7999 87.3545 42.4907 86.7584Z" fill="white"/>
<path d="M57.103 74.0234C57.9785 73.7529 58.8981 73.8279 59.862 74.2484C60.8564 74.6328 61.4549 75.1528 61.6575 75.8085C61.8525 76.4398 61.6707 77.201 61.1121 78.0918C60.5914 78.971 59.7639 79.5991 58.6296 79.9762C58.0967 80.1408 57.0888 80.2527 55.606 80.3118C54.1537 80.3349 53.1161 80.2831 52.4932 80.1563C51.8985 82.415 52.7623 84.0635 55.0845 85.1017C56.0028 85.5096 56.8997 85.5784 57.7751 85.3079C58.6506 85.0374 59.5499 84.5068 60.4731 83.7161C61.3888 82.9011 61.9086 82.2218 62.0325 81.678C62.1944 81.1226 62.4695 80.7982 62.8576 80.7048C63.0935 80.6586 63.2339 80.7083 63.279 80.854C63.324 80.9997 63.3079 81.2175 63.2307 81.5073C62.9984 82.5102 62.4623 83.4739 61.6221 84.3985C60.8201 85.3114 59.81 85.956 58.592 86.3323C56.7194 86.8843 55.0503 86.9478 53.5847 86.5228C52.1646 86.1103 51.0084 85.337 50.1159 84.2028C49.6207 82.6001 49.7682 80.9185 50.5586 79.158C51.387 77.3857 52.8755 75.9282 55.0243 74.7854C55.5346 74.5479 56.2276 74.2939 57.103 74.0234ZM58.5428 78.8857C59.1137 78.7093 59.522 78.3437 59.7676 77.789C60.0512 77.2225 60.1293 76.7329 60.0017 76.32C59.8742 75.9072 59.4802 75.5767 58.8197 75.3286C58.1973 75.0686 57.6768 75.0033 57.2581 75.1327C56.8394 75.2621 56.3899 75.4941 55.9095 75.8287C54.2942 76.6736 53.2364 77.8384 52.7361 79.3231C52.7742 79.3114 52.8881 79.3427 53.0779 79.417C53.2982 79.4554 54.1233 79.4266 55.553 79.3306C56.9753 79.2104 57.9719 79.0621 58.5428 78.8857Z" fill="white"/>
<path d="M67.9775 74.0153L67.5394 72.3949C67.1493 71.1322 66.6124 70.4069 65.9289 70.219C65.5644 70.1188 65.1157 70.1511 64.5828 70.3157C63.5551 70.6333 62.6627 71.3213 61.9057 72.3799C61.1411 73.4142 60.8639 74.2713 61.074 74.9513C61.164 75.2427 61.4173 75.59 61.8338 75.9934C62.2428 76.3725 62.6757 76.4914 63.1325 76.3503C63.6198 76.1731 64.0353 75.8984 64.3789 75.5262C64.7151 75.1297 64.8344 74.7737 64.7369 74.458C64.6318 74.118 64.4882 73.923 64.3059 73.8729C64.1617 73.811 63.903 73.851 63.5299 73.9929C63.1873 74.0988 62.9439 74.1208 62.7997 74.0589C62.6861 73.961 62.6486 73.8396 62.6872 73.6947C62.7258 73.5497 62.8593 73.442 63.0877 73.3714L63.0764 73.335C63.1906 73.2997 63.4761 73.2115 63.9328 73.0704C64.4277 72.9175 64.8573 72.8911 65.2219 72.9913C65.5789 73.0672 65.8475 73.3965 66.0275 73.9794C66.2001 74.5379 66.0076 75.1294 65.45 75.7539C64.8849 76.3542 64.1341 76.8256 63.1975 77.1682C62.6266 77.3446 61.9125 77.1928 61.0554 76.7127C60.2288 76.1967 59.7554 75.7444 59.6354 75.3559C59.3883 74.4213 59.7428 73.2743 60.6987 71.9149C61.6853 70.5194 62.8065 69.6276 64.0626 69.2395C65.3568 68.8396 66.5276 68.8503 67.5751 69.2715C69.283 69.9409 70.4792 71.1807 71.1636 72.991L71.6138 74.448C72.6316 70.9945 73.263 69.057 73.508 68.6354C74.5803 66.708 75.9349 65.4914 77.5716 64.9857C78.3709 64.7387 79.1764 64.849 79.988 65.3164C80.8301 65.7479 81.33 66.2186 81.4875 66.7286C81.8327 67.8456 81.9203 68.7363 81.7503 69.4007C81.1717 71.4416 81.16 73.3606 81.7152 75.1576C82.3755 77.2945 83.5017 78.9151 85.0937 80.0193C85.5505 79.8782 85.9963 79.6341 86.4311 79.2869C86.9114 78.9523 87.239 78.7979 87.4138 78.8237C87.6266 78.8377 87.7518 78.9054 87.7893 79.0269C87.8268 79.1483 87.7616 79.2748 87.5938 79.4065C86.6556 80.1486 85.8439 80.6255 85.1588 80.8372C84.4812 81.0732 83.7331 80.8787 82.9145 80.2537C82.8009 80.1558 82.5546 79.9659 82.1756 79.684C81.8041 79.4263 81.5085 79.2118 81.2887 79.0402C81.0995 78.8327 80.8609 78.6005 80.5731 78.3436C79.9823 77.7812 79.6195 77.2815 79.4844 76.8444C79.3493 76.4073 79.248 76.0795 79.1805 75.8609C78.3852 73.2869 78.2342 71.1787 78.7275 69.5366C79.0359 68.5103 79.1185 67.833 78.9754 67.5048C78.6903 66.582 78.3574 66.1794 77.9767 66.297C76.6826 66.6969 75.6827 67.6443 74.9771 69.1392C74.4404 70.2361 73.972 71.3518 73.572 72.4862C72.8636 74.6471 72.4817 77.8642 72.4261 82.1377C72.4331 82.2952 72.25 82.4449 71.8768 82.5867C71.5418 82.7169 71.188 82.7863 70.8154 82.795C70.4809 82.792 70.2911 82.7176 70.2461 82.5719C69.9867 80.9229 69.602 79.2727 69.0918 77.6214C68.574 75.9458 68.2026 74.7438 67.9775 74.0153Z" fill="white"/>
<path d="M88.4252 72.5656L88.2797 71.8923C88.2421 71.7709 88.292 71.6624 88.4293 71.5668C88.5665 71.4711 88.6997 71.43 88.8289 71.4433C88.9962 71.4448 89.0986 71.5063 89.1361 71.6277C89.3012 72.1619 89.5703 72.3581 89.9434 72.2162C90.3851 72.0265 90.6642 71.6477 90.7806 71.0797C90.8117 70.9104 90.8085 70.7651 90.771 70.6437L90.4421 70.1867C90.3521 69.8953 90.1479 69.6391 89.8294 69.4183C89.511 69.1975 89.1615 69.1458 88.7809 69.2634C88.5906 69.3222 88.4032 69.593 88.2187 70.0756C87.5759 71.0989 87.4232 72.1569 87.7609 73.2497C88.0985 74.3424 88.8632 75.1304 90.0549 75.6134C90.1004 75.6259 90.1573 75.6749 90.2253 75.7603C90.369 75.9553 90.536 76.0234 90.7263 75.9646C91.3353 75.7764 91.9918 75.1347 92.6958 74.0393C93.7912 72.0515 94.0687 70.1834 93.5285 68.435C93.2959 67.6822 92.9748 67.1828 92.5653 66.9369C92.1938 66.6793 91.4642 66.6121 90.3765 66.7354C90.095 66.7691 89.4825 66.8786 88.539 67.0637C87.588 67.2245 86.9071 67.3152 86.4965 67.3357C86.1239 67.3444 85.6948 67.2376 85.2091 67.0152C84.7234 66.7928 84.3643 66.3052 84.1317 65.5524C83.8991 64.7996 84.1772 63.7428 84.9659 62.3818C85.9996 60.5993 87.3158 59.461 88.9144 58.9671C89.6757 58.7319 90.512 58.7395 91.4233 58.99C92.3727 59.2287 92.9599 59.7123 93.185 60.4408C93.4026 61.145 93.3197 61.8889 92.9364 62.6724C92.5836 63.4198 91.9885 63.9229 91.1511 64.1817C90.7704 64.2993 90.3448 64.2712 89.8741 64.0974C89.434 63.8875 89.1687 63.7035 89.0781 63.5453C89.018 63.351 88.9958 63.2116 89.0114 63.127C89.0575 63.0063 89.1417 62.8739 89.2639 62.7297C89.4242 62.5738 89.5312 62.4476 89.5848 62.3512C89.6765 62.2431 89.8022 62.1777 89.9619 62.1549C90.1598 62.1204 90.2927 62.1458 90.3608 62.2312C90.4594 62.2805 90.4666 62.3714 90.3825 62.5038L90.4854 62.4321C90.2409 62.7204 90.1412 62.9375 90.1862 63.0832C90.2237 63.2046 90.3221 63.3205 90.4813 63.4309C90.6405 63.5414 90.7962 63.573 90.9485 63.526C91.5575 63.3378 91.9848 62.9664 92.2304 62.4117C92.5065 61.8209 92.5695 61.2827 92.4195 60.797C92.2694 60.3114 91.8601 59.9989 91.1916 59.8596C90.5231 59.7203 90.0176 59.7036 89.6751 59.8094C88.3048 60.2328 87.2711 61.0709 86.5741 62.3238C85.8771 63.5766 85.6449 64.5795 85.8775 65.3323C86.0576 65.9151 86.5202 66.1978 87.2653 66.1803C87.8432 66.1614 88.486 66.0825 89.1937 65.9437C89.9013 65.8048 90.3731 65.7122 90.609 65.666C92.0237 65.5215 93.0801 65.634 93.778 66.0036C94.476 66.3732 94.9637 67.0072 95.2414 67.9057C95.8941 70.0184 95.6688 72.1231 94.5654 74.2198C94.0673 75.1717 93.7571 75.7198 93.6348 75.864C92.8708 76.7651 92.1653 77.3156 91.5182 77.5156C90.9092 77.7037 90.278 77.7525 89.6245 77.6618C89.0166 77.5836 88.5419 77.4642 88.2004 77.3037C86.5536 76.5622 85.5051 75.463 85.0549 74.006C84.6047 72.5489 84.8348 71.1344 85.7452 69.7625C86.1511 69.0518 87.0392 68.4848 88.4095 68.0614C88.4475 68.0496 88.4856 68.0379 88.5237 68.0261C89.2469 67.8027 89.9231 67.8996 90.5524 68.317C91.1818 68.7344 91.5827 69.2224 91.7553 69.7809L91.6845 70.3614C91.8345 70.8471 91.6155 71.4202 91.0274 72.0808C90.4392 72.7414 89.9739 73.1246 89.6313 73.2304C89.1365 73.3833 88.7344 73.1617 88.4252 72.5656Z" fill="white"/>
<path d="M103.037 59.8307C103.913 59.5602 104.833 59.6351 105.796 60.0556C106.791 60.44 107.389 60.96 107.592 61.6157C107.787 62.2471 107.605 63.0082 107.047 63.8991C106.526 64.7782 105.698 65.4063 104.564 65.7834C104.031 65.948 103.023 66.0599 101.54 66.1191C100.088 66.1421 99.0506 66.0903 98.4277 65.9635C97.833 68.2223 98.6968 69.8707 101.019 70.9089C101.937 71.3169 102.834 71.3856 103.71 71.1151C104.585 70.8446 105.484 70.314 106.408 69.5233C107.323 68.7083 107.843 68.029 107.967 67.4853C108.129 66.9298 108.404 66.6054 108.792 66.5121C109.028 66.4658 109.168 66.5155 109.213 66.6612C109.258 66.8069 109.242 67.0247 109.165 67.3146C108.933 68.3174 108.397 69.2811 107.557 70.2058C106.755 71.1186 105.745 71.7632 104.527 72.1396C102.654 72.6916 100.985 72.755 99.5192 72.33C98.0991 71.9175 96.9428 71.1442 96.0504 70.0101C95.5551 68.4073 95.7027 66.7257 96.4931 64.9652C97.3215 63.1929 98.81 61.7354 100.959 60.5927C101.469 60.3552 102.162 60.1012 103.037 59.8307ZM104.477 64.6929C105.048 64.5165 105.456 64.1509 105.702 63.5962C105.986 63.0297 106.064 62.5401 105.936 62.1273C105.809 61.7144 105.415 61.384 104.754 61.1358C104.132 60.8758 103.611 60.8106 103.193 60.9399C102.774 61.0693 102.324 61.3013 101.844 61.6359C100.229 62.4809 99.1709 63.6457 98.6706 65.1303C98.7087 65.1186 98.8226 65.1499 99.0124 65.2243C99.2327 65.2626 100.058 65.2338 101.487 65.1378C102.91 65.0176 103.906 64.8693 104.477 64.6929Z" fill="white"/>
</svg>
