<svg width="32" height="32" viewBox="0 0 32 32" fill="none" xmlns="http://www.w3.org/2000/svg">
<path d="M31.999 29.4288C31.999 30.8486 30.8486 31.999 29.4288 31.999C28.009 31.999 26.8586 30.8486 26.8586 29.4288C26.8586 16.036 15.963 5.1404 2.5702 5.1404C1.15145 5.1404 0 3.98998 0 2.5702C0 1.15042 1.15145 0 2.5702 0C18.8005 0 31.999 13.2016 31.999 29.4288ZM2.57123 12.0265C1.15145 12.0265 0.00102808 13.1769 0.00102808 14.5967C0.00102808 16.0165 1.15145 17.1669 2.57123 17.1669C9.33188 17.1669 14.8352 22.6702 14.8352 29.4308C14.8352 30.8506 15.9846 32.001 17.4054 32.001C18.8252 32.001 19.9756 30.8506 19.9756 29.4308C19.9756 19.8337 12.1663 12.0265 2.57123 12.0265ZM4.61196 23.5492C2.49104 23.5492 0.774144 25.2692 0.774144 27.388C0.774144 29.5079 2.49309 31.2269 4.61196 31.2269C6.73084 31.2269 8.45081 29.5079 8.45081 27.388C8.45184 25.2692 6.73084 23.5492 4.61196 23.5492Z" fill="#E5E5E5"/>
</svg>
